HIERARCHY
ROOT hip
{
  OFFSET 5.70873 43.8894 -1.52928
  CHANNELS 6 Xposition Yposition Zposition Zrotation Xrotation Yrotation
  JOINT abdomen
  {
    OFFSET 0 5.99393 0.287273
    CHANNELS 6 Xposition Yposition Zposition Zrotation Xrotation Yrotation
    JOINT chest
    {
      OFFSET 0 6.65865 -0.856112
      CHANNELS 6 Xposition Yposition Zposition Zrotation Xrotation Yrotation
      JOINT neck
      {
        OFFSET 0 8.65624 -1.42685
        CHANNELS 6 Xposition Yposition Zposition Zrotation Xrotation Yrotation
        JOINT head
        {
          OFFSET 0 3.80999 -0.190247
          CHANNELS 6 Xposition Yposition Zposition Zrotation Xrotation Yrotation
          End Site
          {
            OFFSET 0 0 0
          }
        }
      }
      JOINT rCollar
      {
        OFFSET -1.4963 7.5744 -1.52136
        CHANNELS 6 Xposition Yposition Zposition Zrotation Xrotation Yrotation
        JOINT rShldr
        {
          OFFSET -5.47506 -0.905672 0.485692
          CHANNELS 6 Xposition Yposition Zposition Zrotation Xrotation Yrotation
          JOINT rForeArm
          {
            OFFSET -11.3069 -0.201091 0.618544
            CHANNELS 6 Xposition Yposition Zposition Zrotation Xrotation Yrotation
            JOINT rHand
            {
              OFFSET -9.61414 -0.254739 3.48553
              CHANNELS 6 Xposition Yposition Zposition Zrotation Xrotation Yrotation
              JOINT rThumb1
              {
                OFFSET 0.176263 -0.07068 1.26622
                CHANNELS 6 Xposition Yposition Zposition Zrotation Xrotation Yrotation
                JOINT rThumb2
                {
                  OFFSET -1.04683 -0.546484 1.82182
                  CHANNELS 6 Xposition Yposition Zposition Zrotation Xrotation Yrotation
                  JOINT rThumb3
                  {
                    OFFSET -0.993472 -0.621916 0.655506
                    CHANNELS 6 Xposition Yposition Zposition Zrotation Xrotation Yrotation
                    End Site
                    {
                      OFFSET -0.996134 -0.66263 0.644615
                    }
                  }
                }
              }
              JOINT rIndex1
              {
                OFFSET -2.64253 0.566363 2.4162
                CHANNELS 6 Xposition Yposition Zposition Zrotation Xrotation Yrotation
                JOINT rIndex2
                {
                  OFFSET -1.39394 -0.635138 0.899356
                  CHANNELS 6 Xposition Yposition Zposition Zrotation Xrotation Yrotation
                  JOINT rIndex3
                  {
                    OFFSET -0.622395 -0.856016 0.402182
                    CHANNELS 6 Xposition Yposition Zposition Zrotation Xrotation Yrotation
                    End Site
                    {
                      OFFSET -0.472476 -0.801802 0.34216
                    }
                  }
                }
              }
              JOINT rMid1
              {
                OFFSET -3.20814 0.514427 1.52547
                CHANNELS 6 Xposition Yposition Zposition Zrotation Xrotation Yrotation
                JOINT rMid2
                {
                  OFFSET -1.56545 -0.497974 0.68919
                  CHANNELS 6 Xposition Yposition Zposition Zrotation Xrotation Yrotation
                  JOINT rMid3
                  {
                    OFFSET -0.679943 -1.17582 0.444246
                    CHANNELS 6 Xposition Yposition Zposition Zrotation Xrotation Yrotation
                    End Site
                    {
                      OFFSET -0.343874 -0.941341 0.267611
                    }
                  }
                }
              }
              JOINT rRing1
              {
                OFFSET -3.47877 0.200518 0.597719
                CHANNELS 6 Xposition Yposition Zposition Zrotation Xrotation Yrotation
                JOINT rRing2
                {
                  OFFSET -1.28208 -0.53155 0.44672
                  CHANNELS 6 Xposition Yposition Zposition Zrotation Xrotation Yrotation
                  JOINT rRing3
                  {
                    OFFSET -0.710288 -0.970167 0.4032
                    CHANNELS 6 Xposition Yposition Zposition Zrotation Xrotation Yrotation
                    End Site
                    {
                      OFFSET -0.403228 -0.950952 0.378354
                    }
                  }
                }
              }
              JOINT rPinky1
              {
                OFFSET -3.42483 -0.278904 -0.240415
                CHANNELS 6 Xposition Yposition Zposition Zrotation Xrotation Yrotation
                JOINT rPinky2
                {
                  OFFSET -1.05787 -0.635999 0.156459
                  CHANNELS 6 Xposition Yposition Zposition Zrotation Xrotation Yrotation
                  JOINT rPinky3
                  {
                    OFFSET -0.42815 -0.754232 0.287187
                    CHANNELS 6 Xposition Yposition Zposition Zrotation Xrotation Yrotation
                    End Site
                    {
                      OFFSET -0.235717 -0.725605 0.279416
                    }
                  }
                }
              }
            }
          }
        }
      }
      JOINT lCollar
      {
        OFFSET 1.4963 7.5744 -1.52136
        CHANNELS 6 Xposition Yposition Zposition Zrotation Xrotation Yrotation
        JOINT lShldr
        {
          OFFSET 5.47506 -0.905672 0.485692
          CHANNELS 6 Xposition Yposition Zposition Zrotation Xrotation Yrotation
          JOINT lForeArm
          {
            OFFSET 11.3069 -0.201091 0.618544
            CHANNELS 6 Xposition Yposition Zposition Zrotation Xrotation Yrotation
            JOINT lHand
            {
              OFFSET 9.61414 -0.254739 3.48553
              CHANNELS 6 Xposition Yposition Zposition Zrotation Xrotation Yrotation
              JOINT lThumb1
              {
                OFFSET -0.176263 -0.07068 1.26622
                CHANNELS 6 Xposition Yposition Zposition Zrotation Xrotation Yrotation
                JOINT lThumb2
                {
                  OFFSET 1.04683 -0.546484 1.82182
                  CHANNELS 6 Xposition Yposition Zposition Zrotation Xrotation Yrotation
                  JOINT lThumb3
                  {
                    OFFSET 0.993472 -0.621916 0.655506
                    CHANNELS 6 Xposition Yposition Zposition Zrotation Xrotation Yrotation
                    End Site
                    {
                      OFFSET 0.996134 -0.66263 0.644615
                    }
                  }
                }
              }
              JOINT lIndex1
              {
                OFFSET 2.64253 0.566363 2.4162
                CHANNELS 6 Xposition Yposition Zposition Zrotation Xrotation Yrotation
                JOINT lIndex2
                {
                  OFFSET 1.39394 -0.635138 0.899356
                  CHANNELS 6 Xposition Yposition Zposition Zrotation Xrotation Yrotation
                  JOINT lIndex3
                  {
                    OFFSET 0.622395 -0.856016 0.402182
                    CHANNELS 6 Xposition Yposition Zposition Zrotation Xrotation Yrotation
                    End Site
                    {
                      OFFSET 0.472476 -0.801802 0.34216
                    }
                  }
                }
              }
              JOINT lMid1
              {
                OFFSET 3.20814 0.514427 1.52547
                CHANNELS 6 Xposition Yposition Zposition Zrotation Xrotation Yrotation
                JOINT lMid2
                {
                  OFFSET 1.56545 -0.497974 0.68919
                  CHANNELS 6 Xposition Yposition Zposition Zrotation Xrotation Yrotation
                  JOINT lMid3
                  {
                    OFFSET 0.679943 -1.17582 0.444246
                    CHANNELS 6 Xposition Yposition Zposition Zrotation Xrotation Yrotation
                    End Site
                    {
                      OFFSET 0.343874 -0.941341 0.267611
                    }
                  }
                }
              }
              JOINT lRing1
              {
                OFFSET 3.47877 0.200518 0.597719
                CHANNELS 6 Xposition Yposition Zposition Zrotation Xrotation Yrotation
                JOINT lRing2
                {
                  OFFSET 1.28208 -0.53155 0.44672
                  CHANNELS 6 Xposition Yposition Zposition Zrotation Xrotation Yrotation
                  JOINT lRing3
                  {
                    OFFSET 0.710288 -0.970167 0.4032
                    CHANNELS 6 Xposition Yposition Zposition Zrotation Xrotation Yrotation
                    End Site
                    {
                      OFFSET 0.403228 -0.950952 0.378354
                    }
                  }
                }
              }
              JOINT lPinky1
              {
                OFFSET 3.42483 -0.278904 -0.240415
                CHANNELS 6 Xposition Yposition Zposition Zrotation Xrotation Yrotation
                JOINT lPinky2
                {
                  OFFSET 1.05787 -0.635999 0.156459
                  CHANNELS 6 Xposition Yposition Zposition Zrotation Xrotation Yrotation
                  JOINT lPinky3
                  {
                    OFFSET 0.42815 -0.754232 0.287187
                    CHANNELS 6 Xposition Yposition Zposition Zrotation Xrotation Yrotation
                    End Site
                    {
                      OFFSET 0.235717 -0.725605 0.279416
                    }
                  }
                }
              }
            }
          }
        }
      }
    }
  }
  JOINT rThigh
  {
    OFFSET -4.17848 -1.02486 0.046356
    CHANNELS 6 Xposition Yposition Zposition Zrotation Xrotation Yrotation
    JOINT rShin
    {
      OFFSET 1.27155 -17.465 -0.237699
      CHANNELS 6 Xposition Yposition Zposition Zrotation Xrotation Yrotation
      JOINT rFoot
      {
        OFFSET 0.529163 -17.3815 -1.19582
        CHANNELS 6 Xposition Yposition Zposition Zrotation Xrotation Yrotation
        JOINT rToe
        {
          OFFSET -0.711591 -4.4863 4.0596
          CHANNELS 6 Xposition Yposition Zposition Zrotation Xrotation Yrotation
          End Site
          {
            OFFSET -0.869915 -1.10655 1.99006
          }
        }
      }
    }
  }
  JOINT lThigh
  {
    OFFSET 4.17848 -1.02486 0.046356
    CHANNELS 6 Xposition Yposition Zposition Zrotation Xrotation Yrotation
    JOINT lShin
    {
      OFFSET -1.27155 -17.465 -0.237699
      CHANNELS 6 Xposition Yposition Zposition Zrotation Xrotation Yrotation
      JOINT lFoot
      {
        OFFSET -0.529163 -17.3815 -1.19582
        CHANNELS 6 Xposition Yposition Zposition Zrotation Xrotation Yrotation
        JOINT lToe
        {
          OFFSET 0.711591 -4.4863 4.0596
          CHANNELS 6 Xposition Yposition Zposition Zrotation Xrotation Yrotation
          End Site
          {
            OFFSET 0.869915 -1.10655 1.99006
          }
        }
      }
    }
  }
}
MOTION
Frames:	4
Frame Time:	0.0333333
-5.19042 45.1017 -6.71056 165.1 -6.60782 123.396 -8.88178e-016 5.99393 0.287273 -0.430678 -10.5069 -2.263 -8.88178e-016 6.65865 -0.856112 -1.32578 -20.9874 -4.73032 -1.77636e-015 8.65624 -1.42685 -7.24589 -18.0924 -4.9513 0 3.80999 -0.190247 -1.843 -7.36174 -0.234544 -1.4963 7.5744 -1.52136 -29.042 -1.28153 -2.80148 -5.47506 -0.905672 0.485692 12.7936 -32.5894 40.5939 -11.3069 -0.201091 0.618544 73.8696 -21.664 146.839 -9.61414 -0.254739 3.48553 -119.805 19.9934 90.2595 0.176263 -0.07068 1.26622 -16.9195 7.23732 6.34839 -1.04683 -0.546484 1.82182 -6.3024 10.3895 -24.6877 -0.993472 -0.621916 0.655506 -7.69109 16.4133 -37.1025 -2.64253 0.566363 2.4162 -9.90285 6.52843 7.19791 -1.39394 -0.635138 0.899356 -2.99244 -0.809313 0.420015 -0.622395 -0.856016 0.402182 -2.55696 -0.689808 0.361272 -3.20814 0.514427 1.52547 -24.358 -11.784 -3.68625 -1.56545 -0.497974 0.68919 -3.40156 -1.05992 0.453112 -0.679943 -1.17582 0.444246 -14.7385 -4.76331 1.50084 -3.47877 0.200518 0.597719 -32.4112 -7.65154 -14.5716 -1.28208 -0.53155 0.44672 -7.49771 -2.68666 1.19966 -0.710288 -0.970167 0.4032 -18.4846 -6.86929 2.3109 -3.42483 -0.278904 -0.240415 -36.46 -0.183161 -22.4641 -1.05787 -0.635999 0.156459 -14.2282 -5.60543 1.72751 -0.42815 -0.754232 0.287187 -14.5659 -5.74316 1.75108 1.4963 7.5744 -1.52136 37.9176 1.80553 1.03484 5.47506 -0.905672 0.485692 -23.1389 -55.0797 -44.075 11.3069 -0.201091 0.618544 -59.0254 -32.6546 -133.119 9.61414 -0.254739 3.48553 92.5672 45.824 -62.4133 -0.176263 -0.07068 1.26622 6.64872 6.69039 -23.9617 1.04683 -0.546484 1.82182 3.53396 1.26675 6.38201 0.993472 -0.621916 0.655506 6.972 2.95249 12.7988 2.64253 0.566363 2.4162 13.4659 4.66957 -9.91259 1.39394 -0.635138 0.899356 7.69695 -2.80178 -2.92162 0.622395 -0.856016 0.402182 7.29826 -2.64599 -2.77863 3.20814 0.514427 1.52547 27.1661 -16.8453 -3.04842 1.56545 -0.497974 0.68919 7.98285 -3.28506 -3.02346 0.679943 -1.17582 0.444246 18.1859 -8.13417 -6.25185 3.47877 0.200518 0.597719 38.3166 -14.354 8.06629 1.28208 -0.53155 0.44672 11.437 -5.38875 -4.79909 0.710288 -0.970167 0.4032 21.093 -10.7472 -8.06738 3.42483 -0.278904 -0.240415 40.312 -8.03172 16.467 1.05787 -0.635999 0.156459 17.539 -9.27893 -6.69734 0.42815 -0.754232 0.287187 18.2899 -9.72761 -6.92515 -4.17848 -1.02486 0.046356 -46.8081 -14.3081 -45.8612 1.27155 -17.465 -0.237699 32.3597 66.433 -23.631 0.529163 -17.3815 -1.19582 6.81261 24.0777 -3.6265 -0.711591 -4.4863 4.0596 1.14419 8.19308 -0.302082 4.17848 -1.02486 0.046356 58.8977 -26.4511 47.3917 -1.27155 -17.465 -0.237699 140.675 84.279 -143.386 -0.529163 -17.3815 -1.19582 -3.15338 31.462 -23.2644 0.711591 -4.4863 4.0596 1.33321 -10.3625 0.644605 
-5.18989 45.0676 -6.66887 164.964 -6.74151 123.491 8.88178e-016 5.99393 0.287273 -0.390349 -10.7419 -2.26859 8.88178e-016 6.65865 -0.856112 -1.25629 -21.4586 -4.74165 4.44089e-016 8.65624 -1.42685 -6.73434 -17.2842 -4.71477 0 3.80999 -0.190247 -0.974591 -6.86077 -0.245577 -1.4963 7.5744 -1.52136 -29.0349 -1.28802 -2.63194 -5.47506 -0.905672 0.485692 12.5005 -32.1417 40.7225 -11.3069 -0.201091 0.618544 73.9234 -21.4857 146.774 -9.61414 -0.254739 3.48553 -120.119 19.7952 90.5758 0.176263 -0.07068 1.26622 -17.1405 7.4211 5.78244 -1.04683 -0.546484 1.82182 -6.40624 10.6941 -25.3294 -0.993472 -0.621916 0.655506 -7.7402 16.8629 -38.0185 -2.64253 0.566363 2.4162 -9.93461 6.51561 7.20636 -1.39394 -0.635138 0.899356 -2.99245 -0.809224 0.420045 -0.622395 -0.856016 0.402182 -2.55679 -0.689759 0.361251 -3.20814 0.514427 1.52547 -24.358 -11.784 -3.68624 -1.56545 -0.497974 0.68919 -3.40155 -1.05991 0.453116 -0.679943 -1.17582 0.444246 -14.7385 -4.76331 1.50084 -3.47877 0.200518 0.597719 -32.4112 -7.65154 -14.5716 -1.28208 -0.53155 0.44672 -7.49771 -2.68666 1.19964 -0.710288 -0.970167 0.4032 -18.4846 -6.86929 2.3109 -3.42483 -0.278904 -0.240415 -36.46 -0.183163 -22.4641 -1.05787 -0.635999 0.156459 -14.2282 -5.60543 1.72751 -0.42815 -0.754232 0.287187 -14.5659 -5.74315 1.75108 1.4963 7.5744 -1.52136 37.496 1.72366 0.662855 5.47506 -0.905672 0.485692 -23.0163 -54.7296 -44.1217 11.3069 -0.201091 0.618544 -58.7882 -32.7321 -132.913 9.61414 -0.254739 3.48553 92.3539 45.844 -62.2995 -0.176263 -0.07068 1.26622 6.70064 6.68359 -23.8787 1.04683 -0.546484 1.82182 3.05426 1.06829 5.50502 0.993472 -0.621916 0.655506 6.36812 2.62141 11.6526 2.64253 0.566363 2.4162 13.4659 4.66956 -9.91259 1.39394 -0.635138 0.899356 7.69696 -2.80178 -2.92162 0.622395 -0.856016 0.402182 7.29825 -2.646 -2.77863 3.20814 0.514427 1.52547 27.1661 -16.8453 -3.04842 1.56545 -0.497974 0.68919 7.98285 -3.28506 -3.02347 0.679943 -1.17582 0.444246 18.1859 -8.13417 -6.25185 3.47877 0.200518 0.597719 38.3166 -14.354 8.06627 1.28208 -0.53155 0.44672 11.437 -5.38876 -4.79908 0.710288 -0.970167 0.4032 21.093 -10.7472 -8.06738 3.42483 -0.278904 -0.240415 40.312 -8.03173 16.467 1.05787 -0.635999 0.156459 17.539 -9.27893 -6.69733 0.42815 -0.754232 0.287187 18.2899 -9.72761 -6.92516 -4.17848 -1.02486 0.046356 -48.7999 -14.2102 -47.0485 1.27155 -17.465 -0.237699 34.4168 67.4872 -25.7302 0.529163 -17.3815 -1.19582 7.0055 24.0545 -2.99312 -0.711591 -4.4863 4.0596 1.09794 7.87046 -0.286961 4.17848 -1.02486 0.046356 61.4481 -26.4483 49.0718 -1.27155 -17.465 -0.237699 137.494 84.6655 -140.069 -0.529163 -17.3815 -1.19582 -3.06929 30.8959 -22.9977 0.711591 -4.4863 4.0596 1.2635 -9.84908 0.606473 
-5.15639 45.0041 -6.5974 164.24 -7.31754 123.7 -8.88178e-016 5.99393 0.287273 -0.309102 -11.3452 -2.28345 8.88178e-016 6.65865 -0.856112 -1.12393 -22.6679 -4.77564 0 8.65624 -1.42685 -6.18013 -15.6214 -4.51726 8.88178e-016 3.80999 -0.190247 -0.384384 -6.6956 -0.366161 -1.4963 7.5744 -1.52136 -29.1659 -1.28737 -2.16948 -5.47506 -0.905672 0.485692 12.3513 -31.9263 40.8004 -11.3069 -0.201091 0.618544 73.797 -21.2095 146.106 -9.61414 -0.254739 3.48553 -120.491 19.6766 90.9186 0.176263 -0.07068 1.26622 -17.317 7.57096 5.32754 -1.04683 -0.546484 1.82182 -6.49667 10.9687 -25.9062 -0.993472 -0.621916 0.655506 -7.77829 17.2701 -38.8485 -2.64253 0.566363 2.4162 -9.96633 6.50278 7.21479 -1.39394 -0.635138 0.899356 -2.99224 -0.809264 0.419985 -0.622395 -0.856016 0.402182 -2.55661 -0.689711 0.361231 -3.20814 0.514427 1.52547 -24.358 -11.784 -3.68624 -1.56545 -0.497974 0.68919 -3.40154 -1.0599 0.453112 -0.679943 -1.17582 0.444246 -14.7384 -4.76331 1.50084 -3.47877 0.200518 0.597719 -32.4112 -7.65153 -14.5716 -1.28208 -0.53155 0.44672 -7.4977 -2.68665 1.19965 -0.710288 -0.970167 0.4032 -18.4846 -6.86929 2.3109 -3.42483 -0.278904 -0.240415 -36.46 -0.183155 -22.4641 -1.05787 -0.635999 0.156459 -14.2282 -5.60544 1.72752 -0.42815 -0.754232 0.287187 -14.5659 -5.74315 1.75109 1.4963 7.5744 -1.52136 36.7034 1.54674 -0.380473 5.47506 -0.905672 0.485692 -22.7559 -54.7081 -44.1075 11.3069 -0.201091 0.618544 -58.274 -32.6403 -132.154 9.61414 -0.254739 3.48553 92.1136 46.0049 -62.2399 -0.176263 -0.07068 1.26622 6.7426 6.67837 -23.8117 1.04683 -0.546484 1.82182 2.71335 0.932422 4.88405 0.993472 -0.621916 0.655506 5.93516 2.39352 10.8363 2.64253 0.566363 2.4162 13.4659 4.66957 -9.91259 1.39394 -0.635138 0.899356 7.69696 -2.8018 -2.92162 0.622395 -0.856016 0.402182 7.29825 -2.64599 -2.77862 3.20814 0.514427 1.52547 27.1661 -16.8453 -3.04843 1.56545 -0.497974 0.68919 7.98284 -3.28507 -3.02346 0.679943 -1.17582 0.444246 18.1859 -8.13417 -6.25185 3.47877 0.200518 0.597719 38.3165 -14.354 8.06627 1.28208 -0.53155 0.44672 11.437 -5.38875 -4.79908 0.710288 -0.970167 0.4032 21.093 -10.7472 -8.06738 3.42483 -0.278904 -0.240415 40.312 -8.03174 16.467 1.05787 -0.635999 0.156459 17.539 -9.27892 -6.69733 0.42815 -0.754232 0.287187 18.2899 -9.7276 -6.92513 -4.17848 -1.02486 0.046356 -50.5875 -14.5146 -48.6536 1.27155 -17.465 -0.237699 35.5827 68.0736 -26.9976 0.529163 -17.3815 -1.19582 7.22306 23.889 -3.045 -0.711591 -4.4863 4.0596 0.919262 6.61646 -0.230792 4.17848 -1.02486 0.046356 63.9127 -27.1511 51.0393 -1.27155 -17.465 -0.237699 128.548 85.4616 -130.98 -0.529163 -17.3815 -1.19582 -3.16705 30.7067 -22.2971 0.711591 -4.4863 4.0596 1.30537 -10.1578 0.629327 
-5.13647 44.9544 -6.5634 164.137 -7.36328 123.714 0 5.99393 0.287273 -0.259902 -11.464 -2.26685 0 6.65865 -0.856112 -1.02521 -22.9076 -4.73488 0 8.65624 -1.42685 -5.63247 -15.0958 -4.29307 -4.44089e-016 3.80999 -0.190247 0.38263 -6.01958 -0.318682 -1.4963 7.5744 -1.52136 -29.2659 -1.28883 -2.25341 -5.47506 -0.905672 0.485692 11.8592 -31.4553 40.7366 -11.3069 -0.201091 0.618544 73.9694 -21.0745 146.413 -9.61414 -0.254739 3.48553 -120.794 19.5202 91.004 0.176263 -0.07068 1.26622 -17.5447 7.76921 4.73723 -1.04683 -0.546484 1.82182 -6.60605 11.3138 -26.6287 -0.993472 -0.621916 0.655506 -7.81683 17.7734 -39.875 -2.64253 0.566363 2.4162 -9.99795 6.49001 7.2232 -1.39394 -0.635138 0.899356 -2.99225 -0.809176 0.420016 -0.622395 -0.856016 0.402182 -2.55645 -0.689662 0.361211 -3.20814 0.514427 1.52547 -24.358 -11.784 -3.68624 -1.56545 -0.497974 0.68919 -3.40155 -1.0599 0.453118 -0.679943 -1.17582 0.444246 -14.7384 -4.7633 1.50084 -3.47877 0.200518 0.597719 -32.4112 -7.65154 -14.5716 -1.28208 -0.53155 0.44672 -7.4977 -2.68666 1.19965 -0.710288 -0.970167 0.4032 -18.4846 -6.86929 2.3109 -3.42483 -0.278904 -0.240415 -36.46 -0.183168 -22.4641 -1.05787 -0.635999 0.156459 -14.2282 -5.60543 1.72752 -0.42815 -0.754232 0.287187 -14.5659 -5.74314 1.7511 1.4963 7.5744 -1.52136 36.3538 1.53765 -0.329774 5.47506 -0.905672 0.485692 -22.2181 -54.1745 -43.6523 11.3069 -0.201091 0.618544 -58.5358 -32.7773 -132.612 9.61414 -0.254739 3.48553 91.9664 45.9502 -62.0964 -0.176263 -0.07068 1.26622 6.95603 6.65219 -23.4716 1.04683 -0.546484 1.82182 2.5409 0.865319 4.57064 0.993472 -0.621916 0.655506 5.71488 2.28058 10.4226 2.64253 0.566363 2.4162 13.4659 4.66955 -9.91259 1.39394 -0.635138 0.899356 7.69695 -2.8018 -2.92161 0.622395 -0.856016 0.402182 7.29825 -2.64602 -2.77861 3.20814 0.514427 1.52547 27.1661 -16.8453 -3.04842 1.56545 -0.497974 0.68919 7.98284 -3.28506 -3.02346 0.679943 -1.17582 0.444246 18.1859 -8.13417 -6.25183 3.47877 0.200518 0.597719 38.3165 -14.354 8.06628 1.28208 -0.53155 0.44672 11.437 -5.38877 -4.79908 0.710288 -0.970167 0.4032 21.093 -10.7472 -8.06737 3.42483 -0.278904 -0.240415 40.312 -8.03175 16.467 1.05787 -0.635999 0.156459 17.539 -9.27892 -6.69733 0.42815 -0.754232 0.287187 18.2899 -9.72761 -6.92514 -4.17848 -1.02486 0.046356 -52.2356 -14.4143 -49.3414 1.27155 -17.465 -0.237699 36.3363 68.4817 -27.9202 0.529163 -17.3815 -1.19582 6.91264 23.2022 -3.009 -0.711591 -4.4863 4.0596 0.935928 6.73405 -0.235869 4.17848 -1.02486 0.046356 65.6579 -27.1092 52.028 -1.27155 -17.465 -0.237699 112.102 86.2506 -114.382 -0.529163 -17.3815 -1.19582 -2.98275 29.866 -21.605 0.711591 -4.4863 4.0596 1.19709 -9.35683 0.570573 
